<?xml version="1.0" encoding="iso-8859-1"?>
<!-- Generator: Adobe Illustrator 19.0.0, SVG Export Plug-In . SVG Version: 6.00 Build 0)  -->
<svg version="1.1" id="Capa_1" xmlns="http://www.w3.org/2000/svg" xmlns:xlink="http://www.w3.org/1999/xlink" x="0px" y="0px"
	 viewBox="0 0 512 512" style="enable-background:new 0 0 512 512;" xml:space="preserve">
<g>
	<g>
		<path d="M96,384H32c-8.832,0-16,7.168-16,16v96c0,8.832,7.168,16,16,16h64c8.832,0,16-7.168,16-16v-96
			C112,391.168,104.832,384,96,384z M80,480H48v-64h32V480z"/>
	</g>
</g>
<g>
	<g>
		<path d="M224,320h-64c-8.832,0-16,7.168-16,16v160c0,8.832,7.168,16,16,16h64c8.832,0,16-7.168,16-16V336
			C240,327.168,232.832,320,224,320z M208,480h-32V352h32V480z"/>
	</g>
</g>
<g>
	<g>
		<path d="M352,192h-64c-8.832,0-16,7.168-16,16v288c0,8.832,7.168,16,16,16h64c8.832,0,16-7.168,16-16V208
			C368,199.168,360.832,192,352,192z M336,480h-32V224h32V480z"/>
	</g>
</g>
<g>
	<g>
		<path d="M480,96h-64c-8.848,0-16,7.168-16,16v384c0,8.832,7.152,16,16,16h64c8.848,0,16-7.168,16-16V112
			C496,103.168,488.848,96,480,96z M464,480h-32V128h32V480z"/>
	</g>
</g>
<g>
	<g>
		<path d="M352,0h-80v32h41.376L36.688,308.688l22.624,22.624L336,54.624V96h32V16C368,7.168,360.832,0,352,0z"/>
	</g>
</g>
<g>
</g>
<g>
</g>
<g>
</g>
<g>
</g>
<g>
</g>
<g>
</g>
<g>
</g>
<g>
</g>
<g>
</g>
<g>
</g>
<g>
</g>
<g>
</g>
<g>
</g>
<g>
</g>
<g>
</g>
</svg>
